<?xml version="1.0" encoding="UTF-8"?>
<svg id="Layer_1" xmlns="http://www.w3.org/2000/svg" width="161" height="50" xmlns:xlink="http://www.w3.org/1999/xlink" viewBox="0 0 161 50">
  <defs>
    <style>
      .cls-1 {
        fill: #777;
      }

      .cls-2 {
        fill: url(#linear-gradient-2);
      }

      .cls-3 {
        fill: url(#linear-gradient);
      }

      .cls-4 {
        fill: #fff;
      }
    </style>
    <linearGradient id="linear-gradient" x1="116.26" y1="18.5" x2="127.56" y2="18.5" gradientUnits="userSpaceOnUse">
      <stop offset="0" stop-color="#009bdf"/>
      <stop offset="1" stop-color="#66c8ec"/>
    </linearGradient>
    <linearGradient id="linear-gradient-2" x1="6.53" y1="43.59" x2="44.68" y2="6.56" xlink:href="#linear-gradient"/>
  </defs>
  <circle class="cls-3" cx="121.91" cy="18.5" r="5.65"/>
  <g>
    <g>
      <path d="M59.42,28.82l-7.63-20.68h7.1l4.46,13.92,4.46-13.92h7.1l-7.63,20.68h-7.88Z"/>
      <path d="M75.42,28.82V8.14h6.26v20.68h-6.26Z"/>
      <path d="M82.83,25.9l3.26-4.65c1.55,1.49,3.88,2.67,6.67,2.67,1.18,0,2.29-.31,2.29-1.12,0-1.98-11.53.03-11.53-8.12,0-3.5,2.91-6.85,8.59-6.85,3.38,0,6.42.96,8.78,2.88l-3.35,4.43c-1.8-1.36-4.12-2.05-6.08-2.05-1.24,0-1.58.4-1.58.93,0,1.95,11.5.28,11.5,7.97,0,4.56-3.38,7.19-8.93,7.19-4.4,0-7.41-1.3-9.61-3.29Z"/>
      <path d="M102.79,28.82V8.14h6.26v20.68h-6.26Z"/>
      <path d="M110.66,18.49c0-6.36,4.93-10.7,11.32-10.7s11.32,4.34,11.32,10.7-4.93,10.7-11.32,10.7-11.32-4.34-11.32-10.7ZM126.94,18.49c0-2.88-1.95-5.18-4.96-5.18s-4.96,2.29-4.96,5.18,1.95,5.18,4.96,5.18,4.96-2.29,4.96-5.18Z"/>
      <path d="M148.8,28.82l-7.63-10.48v10.48h-6.26V8.14h6.45l7.19,9.8v-9.8h6.26v20.68h-6.02Z"/>
    </g>
    <g>
      <path class="cls-1" d="M110,42.27l-2.68-4.23h-2.14v4.23h-2.13v-11.34h5.35c2.41,0,4,1.45,4,3.55s-1.42,3.11-2.9,3.33l2.99,4.45h-2.48ZM110.2,34.47c0-1.09-.88-1.79-2.08-1.79h-2.94v3.6h2.94c1.2,0,2.08-.71,2.08-1.82Z"/>
      <path class="cls-1" d="M115.22,38.16c0-2.38,1.86-4.3,4.47-4.3s4.33,1.87,4.33,4.45v.44h-6.79c.15,1.22,1.13,2.26,2.79,2.26.88,0,1.88-.32,2.52-.92l.88,1.17c-.89.78-2.19,1.21-3.58,1.21-2.67,0-4.62-1.72-4.62-4.32ZM119.67,35.32c-1.62,0-2.39,1.17-2.46,2.16h4.96c-.05-.97-.77-2.16-2.5-2.16Z"/>
      <path class="cls-1" d="M128.14,40.35v-4.74h-1.46v-1.55h1.46v-2.24h1.92v2.24h1.79v1.55h-1.79v4.3c0,.56.29.99.84.99.36,0,.69-.15.84-.31l.46,1.36c-.35.29-.91.53-1.79.53-1.5,0-2.26-.75-2.26-2.12Z"/>
      <path class="cls-1" d="M140.79,42.27v-.9c-.66.71-1.7,1.11-2.87,1.11-1.42,0-3.05-.92-3.05-2.72,0-1.9,1.61-2.69,3.05-2.69,1.21,0,2.21.36,2.87,1.05v-1.22c0-.95-.86-1.53-2.06-1.53-.99,0-1.86.34-2.61,1.05l-.8-1.24c1.02-.92,2.3-1.33,3.71-1.33,1.97,0,3.69.76,3.69,2.96v5.46h-1.92ZM140.79,40.4v-1.26c-.46-.56-1.28-.85-2.1-.85-1.08,0-1.9.59-1.9,1.48s.82,1.48,1.9,1.48c.82,0,1.64-.29,2.1-.85Z"/>
      <path class="cls-1" d="M146.79,31.95c0-.61.53-1.1,1.19-1.1s1.19.49,1.19,1.1-.53,1.11-1.19,1.11-1.19-.49-1.19-1.11ZM147.01,42.27v-8.21h1.92v8.21h-1.92Z"/>
      <path class="cls-1" d="M153.24,42.27v-11.34h1.92v11.34h-1.92Z"/>
    </g>
  </g>
  <g>
    <rect class="cls-2" x="4.51" y="3.83" width="42.34" height="42.34" rx="6" ry="6"/>
    <path class="cls-4" d="M11.1,12.58c-1.23,0-1.23-1.9,0-1.9h3.41c.47,0,.85.38.95.85l1.04,6.16h23.79c.57,0,1.04.66.85,1.23l-3.41,12.04c-.09.47-.47.76-.95.76h-18.58l-.95,1.33h19.53c1.33,0,1.33,1.9,0,1.9h-.57c.19.38.28.76.28,1.23,0,1.8-1.42,3.13-3.13,3.13s-3.13-1.33-3.13-3.13c0-.47.09-.85.28-1.23h-8.72c.19.38.28.76.28,1.23,0,1.8-1.42,3.13-3.13,3.13s-3.13-1.33-3.13-3.13c0-.47.09-.85.28-1.23h-.76c-.76,0-1.23-.95-.76-1.52l2.09-2.84-3.03-18.01h-2.56ZM33.37,35.05c-.66,0-1.23.47-1.23,1.14s.57,1.23,1.23,1.23,1.23-.47,1.23-1.23c0-.66-.57-1.14-1.23-1.14ZM18.97,35.05c-.66,0-1.23.47-1.23,1.14,0,.76.57,1.23,1.23,1.23s1.23-.57,1.23-1.23-.57-1.14-1.23-1.14ZM16.79,19.6l1.71,10.24h17.63l2.94-10.24h-22.27Z"/>
  </g>
</svg>